<?xml version="1.0" encoding="UTF-8"?>
<svg id="Lag_1" data-name="Lag 1" xmlns="http://www.w3.org/2000/svg" viewBox="0 0 112.55 109.59">
  <defs>
    <style>
      .cls-1 {
        stroke-width: .25px;
      }

      .cls-1, .cls-2 {
        fill: none;
        stroke: #000;
        stroke-miterlimit: 10;
      }

      .cls-2 {
        stroke-width: .5px;
      }
    </style>
  </defs>
  <path class="cls-2" d="M72.8,73.81c1.02,.84,1.88,1.89,2.55,3.14,.1,.1,0,.29,.1,.38,.57,.96,.76,2.1,1.15,3.15,0,.1,.19,.1,.19,.19,.76,3.15,1.53,6.02,2.1,9.27,1.05,6.02,2.2,11.66,3.46,17.53"/>
  <path class="cls-2" d="M110.96,107.76c-.16-.24-.45-.43-.64-.71-.38-.48-.67-.96-1.05-1.43-.29-.38-.67-.57-.96-.86-2.01-2.48-3.73-4.78-5.54-7.45-1.43-2.2-2.68-4.2-3.92-6.5-3.63-6.88-6.59-13.76-9.27-21.02-.29-.67-.67-1.34-.96-2.01-.1-.38-.19-.67-.33-1.01-.03,.09,0,.19,.07,.25,0-.08-.04-.17-.07-.25-.07,.1-.36,.8,.01,.7,.22-.06,.04-.56-.01-.7-1.14,1.77-3.01,2.92-4.83,3.88-3.25,1.81-6.88,2.77-10.54,3.13"/>
  <path class="cls-2" d="M25.42,108.62c.07-2.16,.18-4.33,.35-6.48,.08-1.08,.25-2.17,.27-3.24s.11-2.03,.22-3.05c.45-4.01,1.09-8.05,2.4-11.88,.62-1.81,1.5-3.56,3.01-4.78-.07,.04-.15,.09-.22,.14,.07-.04,.15-.09,.22-.14-.47,.33-1.05,.53-1.62,.62-3.06,.48-5.92-.38-8.79-1.43-1.72-.67-3.25-1.43-4.78-2.48-.38-.38-.67-.86-.38-1.43,.38-.57,1.05-.67,1.58-.91-.08,0-.16-.01-.24,0,.07,.03,.16,.02,.24,0-.25,.05-.44,.05-.72,.05-.19,.1-.38,.19-.67,.29-1.43,.57-1.62,2.29-1.72,3.73-.1,1.15-.38,2.29-.67,3.44-2.68,8.79-5.83,17.11-8.98,25.71-.38,.86-1.05,1.62-1.47,2.46"/>
  <circle class="cls-1" cx="52.51" cy="51.19" r="11.15"/>
  <circle class="cls-1" cx="52.53" cy="51.21" r="4"/>
  <path class="cls-2" d="M30.33,77.37s.34-3.61-.9-7.77"/>
  <path class="cls-2" d="M29.9,65.62s-.1,4.73-1.45,5.94"/>
  <path class="cls-2" d="M27.1,66.02s3.53,.68,4.57-3.71"/>
  <path class="cls-2" d="M29.18,62.04s3.46,.41,5.15-1.01c0,0,2.77,.27,3.31,0,0,0,3.17,4.12,5.2,2.5l.29-.24s-2.13-1.91-1.17-2.26c.33-.12-1.58-2.45-1.58-2.45,0,0-4.91-2.25-5.94-2.25s-7.56,2.25-7.56,2.25"/>
  <path class="cls-2" d="M38.36,36.33s1.17-1.44,3.15-2.39l.14,.9"/>
  <path class="cls-2" d="M26.65,53.44s5.31-4.73,6.12-4.68l.81-2.61c1.35-1.17,2.42-3.38,2.42-3.38,.35-.14,2.26-2.07,2.26-2.07,0,0,2.52-.99,3.6-2.66s-.23-3.2-.23-3.2c0,0-1.98,1.26-3.29,1.49s-6.69,5.27-6.69,5.27c-2.41,1.58-3.26,3.65-3.4,4.23s-.81,1.62-1.4,2.66-2.12,4.59-2.12,4.59c-2.97,3.47-2.52,6.35-2.52,6.35-1.89,8.06-5.44,16.67-5.44,16.67"/>
  <path class="cls-2" d="M32.78,48.75c1.62-.27,7.23,4.19,7.23,4.19,0,0,.94,1.73,1.38,4.2,0,0-.61,.17-.22,2.43"/>
  <path class="cls-2" d="M43.13,63.29l.32,.27s.51-.24,.64-.59c0,0-2.13-2.41-2.13-1.94"/>
  <circle class="cls-1" cx="52.51" cy="51.19" r="5.23"/>
  <circle class="cls-1" cx="52.77" cy="51.47" r="8.1"/>
  <path class="cls-2" d="M30.51,56.42s2.9-.94,3.34-2.42"/>
  <path class="cls-2" d="M33.42,53.49s1.96,2.09,4.09,1.97c0,0,.02,1.42,.52,2.07"/>
  <path class="cls-2" d="M41.39,57.14s.24-.67,.91,3.67c.03,.22-.34,0-.34,0"/>
  <path class="cls-2" d="M29.9,79.76c1.46-1.69,3.57-2.35,5.13-3.87l2.29-2.9c.74-1.02,1.33-2.01,2.55-2.5,1.49-.6,2.99-1.19,4.51-1.74s2.97-1.01,4.49-1.41c.72-.19,1.45-.39,2.19-.43,.64-.03,1.41,.09,1.99-.22,1.21-.65,.32-2.49-.72-2.78"/>
  <path class="cls-2" d="M74.08,73.61s-2.44-2.03-.95-6.85c0,0,2.39,2.21,3.06,1.98"/>
  <path class="cls-2" d="M73.12,66.76s-2.43-.59-3.74-.25-3.8,1.22-4.46-1.37,4.5-3.65,4.5-3.65c0,0,5.36,.05,5.49-.52s.77-2.07,.32-2.79-1.64-2.03-2.48-2.23c0,0-2.23,.61-3.06,.46,0,0-.95,2.71-2.99,1.92,0,0,.02-2.93-.47-2.82v-1.44c-.04-1.94,1.15-2.03,1.49-2.27s2.42-.83,2.42-.83c0,0,3.62-.59,4.72-.45s6.8,3.94,6.8,3.94"/>
  <path class="cls-2" d="M66.71,58.34s-.14,.36-.7,.2c0,0-.14-2.66,.22-3.02"/>
  <path class="cls-2" d="M78.14,52.23c-1.09-.68-2.81-2.64-2.81-2.64,0,0-4.32,.83-5.02,.34"/>
  <path class="cls-2" d="M70.56,50.02s-1.67,2.33-3.86,1.3c0,0-1.06-.77-.92-1.36,.27-1.2,1.28-2.42,1.28-2.42,.2-2.52,1.98-2.79,2.7-3.08s3.06-.63,3.49-.65,2.92,.14,2.92,.14c2.07-.14,2.93,1.01,3.08,1.15s1.01,.81,1.69,1.33,2.9,3.17,2.9,3.17"/>
  <path class="cls-2" d="M68.03,42.04s-.97-.38-.68-1.51,1.82-.95,3.85-.79c0,0,.05,.92-.56,1.87-.28,.44-2.61,.43-2.61,.43-.07,1.04,5.23,1.76,5.23,1.76"/>
  <path class="cls-2" d="M87.48,67.7c-.44-.73-.73-9.72-.73-9.72,.52-3.38-.68-5.16-.68-5.27s-1.15-3.78-1.15-3.78c0,0-1.6-3.94-2.39-5.7s-1.42-1.87-1.58-1.96-1.42-.74-1.53-.84-2.75-1.21-5.97-1.6-4.93,.78-4.93,.78l-5.54-1.05s-1.76-.27-2.7-2.43l-.72-1.76s.27-1.71-6.8-1.62-5.94,2.07-6.57,2.57c0,0-.54,1.35-.63,1.71,0,0-1.14,2.63-4.38,3.04s-3.82,2.97-4.1,5.64-.24,4.91-.24,4.91"/>
  <path class="cls-2" d="M67.02,47.54s1.01,2.22-.42,3.7"/>
  <path class="cls-2" d="M65.07,63.9h-23.33s-4.06,.07-4.1-2.88"/>
  <path class="cls-1" d="M41.65,48.78s-1.78,.17-1.89,2.08,1.66,2.09,1.66,2.09"/>
  <path class="cls-1" d="M40.28,40.27s-.06-.63-.28-.49"/>
  <path class="cls-2" d="M35.18,61.09s1.33,1.82,1.66,2.07,.8,1.58,2.4,1.13l1.6-.46"/>
  <path class="cls-2" d="M62.78,38.53s.21-1.99,.41-2.05,3.17,.46,3.31,.46,3.52,.62,3.52,.62c0,0,.11,.65-.13,1.51"/>
  <path class="cls-2" d="M62.33,63.9s-5.44,6.41-9.08,6.88-6.08,.54-7.56,0-1.55-.51-3.44-1.18"/>
  <path class="cls-2" d="M79.43,40.44s-3.22-17.11-8.08-24.81c0,0-3.85-10.6-12.97-13.91-9.12-3.31-20.02,0-20.02,0,0,0-9.16,4.8-11.66,11.01-2.5,6.21-6.21,27.54-6.21,27.54l-4.8,27.91-.98,7.91"/>
  <path class="cls-2" d="M15.69,68.18c-1.22,.83-2.55,1.6-3.61,2.65-.86,.96-1.82,1.82-2.58,2.87-.96,1.53-1.91,2.77-2.58,4.4-.38,1.05-.76,2.1-1.15,3.25-.48,1.62-.67,3.25-.76,4.97-.29,2.2-.57,4.2-.86,6.4-.76,4.49-1.72,8.6-3.06,12.9-.38,1.34-.48,2.68-.86,3.9"/>
  <path class="cls-1" d="M49.39,19.28c.15-3.35,2.02-5.86,4.19-6.21,2.01-.33,3.96,1.25,4.93,2.7,2.25,3.35-.34,6.55,1.08,10.54,1.14,3.2,4.51,2.35,7.29,6.42,1.1,1.6,1.66,3.16,1.96,4.26"/>
  <path class="cls-1" d="M48.45,13.27c1.81-1.05,5.31-2.69,8.78-1.55,2.49,.81,4.1,3.1,7.23,7.63,4.21,6.11,3.57,7.41,6.69,10.06,1.68,1.42,3.05,2.06,4.32,4.12,1.28,2.07,1.61,4.2,1.69,5.67"/>
  <path class="cls-1" d="M42.77,20.26c-.83-1.06-2.02-1.48-3.08-2.31-1.06-.69-2.12-1.11-3.31-1.25-1.72-.14-3.57-.14-5.03,1.25-2.78,2.77-3.31,6.93-3.17,10.67,.11,3.21,1.24,5.84,2.16,8.16,.73,1.84,1.47,3.31,2.03,4.32"/>
  <path class="cls-1" d="M46.08,18.27c-.88-3.77-3.48-6.64-6.69-7.29-3.88-.8-6.99,1.99-8.17,3.04-3.7,3.31-4.41,7.88-4.73,10.13-.64,4.57,.6,6.33,1.08,13.44,.26,3.92,.14,7.12,0,9.12"/>
  <path class="cls-1" d="M25.35,28.67c-.95,2.76-1.96,6.61-2.23,11.28-.31,5.31,.45,9.72,1.22,12.77"/>
  <path class="cls-1" d="M49.53,9.02c5.08-.79,8.18,.3,10.06,1.42,3.19,1.9,3.29,4.13,8.92,10.13,3,3.2,3.45,3.08,4.86,5,2.95,4.01,3.8,8.39,4.05,11.48"/>
  <path class="cls-1" d="M62.56,64.4c-.51,1.06-1.17,2.7-1.52,4.76-.47,2.76-.02,4.09,.1,6.79,.09,2.02,.09,7.1-1.92,12.16-1.4,3.53-2.56,3.96-2.43,6.18,.15,2.63,1.86,3.53,2.53,6.48,.59,2.62-.04,5.02-.71,6.69"/>
  <path class="cls-1" d="M71.63,73.56c-1.74,1.15-3.32,2.62-4.41,4.46-1.22,2.06-1.64,4.57-1.8,6.95-.18,2.62,.05,5.24,.32,7.85,.14,1.3,.27,2.61,.41,3.91,.13,1.22,.24,2.45,.16,3.68s-.38,2.43-.95,3.53-1.22,2.08-1.88,3.09c-.16,.25-.32,.49-.48,.74"/>
  <path class="cls-1" d="M60.44,66.53c-1.62,3.35-2.58,7.07-2.29,10.9,.57,6.4,2.39,12.52,4.78,18.35,1.05,3.92,.96,8.12,.07,12"/>
  <path class="cls-1" d="M68.21,67.03c.32,2.84,1.32,4.47,2.21,5.45,.59,.65,1.04,.92,2.07,1.94,1.35,1.33,2.29,2.57,2.88,3.42"/>
  <path class="cls-1" d="M74.11,78.38c1.69,3.48,2.96,7.19,3.5,11.03s.27,7.94-.86,11.79c-.61,2.1-1.46,4.13-2.08,6.23"/>
  <path class="cls-1" d="M78.17,97.7c1.1,3.23,2.05,6.48,2.26,9.78"/>
  <path class="cls-1" d="M40.6,70.95c.43,5.23,.15,10.75-2.58,15.45l-.41,.64c-2.01,2.67-4.72,4.48-7.81,5.39"/>
  <path class="cls-1" d="M33.47,77.57c.34,.97,1.56,4.84-.27,9.05-1.18,2.71-3.08,4.3-4.05,5"/>
  <path class="cls-2" d="M38.13,86.21s13.32,18.87,15.63,20.36"/>
  <path class="cls-2" d="M65.77,91.02c-.16,.14-.36,.24-.46,.44-4.34,5.84-8.47,11.09-12.72,16.61"/>
  <path class="cls-1" d="M51.93,19.06c.14-.13,2.22-1.96,4.51-.46,2.24,1.47,2.65,4.81,2.68,5.07"/>
  <path class="cls-2" d="M87.15,65.62c2.14,.34,4.25,.63,6.35,.91,1.91,.29,3.63,.96,5.35,2.1,2.29,1.62,3.73,3.82,4.49,6.5,2.1,8.03,3.73,15.58,5.73,23.7,.86,3.06,2.2,5.83,3.23,8.65"/>
  <path class="cls-1" d="M21.97,37.45c.96,5.8,.47,10.26-.14,13.24-1.12,5.48-3.26,8.87-4.05,16.21-.26,2.41-.29,4.4-.27,5.67"/>
  <path class="cls-1" d="M39.94,20.91s-2.08-1.35-5.66,0c0,0-1.92,1.3-1.95,4.43s-1.34,6.1-1.34,6.1"/>
  <path class="cls-1" d="M45.48,9.9c-.89-.7-5.05-3.83-10.58-2.65-4.61,.98-7.36,4.37-8.2,5.48"/>
  <path class="cls-1" d="M46.96,6.11c.98-.93,3.15-2.72,6.35-3.24,4.81-.79,9.42,1.64,11.89,4.73,1.9,2.38,1.35,3.67,3.51,8.11,1.69,3.48,3.65,6.01,5,7.56"/>
  <path class="cls-1" d="M46.79,2.98c-1.09-.44-3.19-1.11-5.87-.92-2.98,.22-5.13,1.4-6.13,2.05"/>
  <path class="cls-1" d="M62.59,44.39l-2.37-6.18s-.01-.03-.02-.05c-.06-.16-.47-1.33-1.22-1.62-.41-.16-.73-.49-.85-.92-.04-.14-.07-.3-.08-.48-.08-.86-1.42-1.12-1.82-1.18-.07,0-.13-.01-.2-.01h-6.52c-.08,0-.16,0-.23,.02-.43,.08-1.8,.4-1.99,1.42-.15,.79-.39,1.01-.54,1.07-.19,.07-.37,.17-.52,.31-.27,.26-.61,.71-.79,1.41-.32,1.26-1.94,5.63-1.94,5.63"/>
  <path class="cls-1" d="M72.36,76.59c-1.84,4.37-2.02,7.82-1.89,10.08,.26,4.33,1.8,6.21,2.13,10.66,.31,4.11-.63,7.5-1.39,9.59"/>
</svg>